<svg width="237" height="236" viewBox="0 0 237 236" fill="none" xmlns="http://www.w3.org/2000/svg">
<g clip-path="url(#clip0_5394_9562)">
<path d="M0 0.000976562H236.411V127.401L224.71 145.653L236.411 161.897V236.001H0V115.902L7.31358 107.506L0 99.475V0.000976562Z" fill="#016FD0"/>
<path d="M45.8928 164.452V127.4H85.1922L89.4086 132.887L93.7645 127.4H236.412V161.896C236.412 161.896 232.681 164.415 228.367 164.452H149.38L144.626 158.611V164.452H129.048V154.481C129.048 154.481 126.92 155.873 122.32 155.873H117.017V164.452H93.4311L89.2207 158.847L84.9457 164.452H45.8928Z" fill="white"/>
<path d="M0 99.474L8.86217 78.8491H24.1884L29.2178 90.4023V78.8491H48.2696L51.2636 87.1994L54.1662 78.8491H139.689V83.0471C139.689 83.0471 144.185 78.8491 151.574 78.8491L179.323 78.9459L184.266 90.3479V78.8491H200.209L204.597 85.3987V78.8491H220.687V115.901H204.597L200.392 109.33V115.901H176.967L174.612 110.06H168.314L165.997 115.901H150.111C143.754 115.901 139.689 111.789 139.689 111.789V115.901H115.737L110.984 110.06V115.901H21.9179L19.5638 110.06H13.2866L10.9491 115.901H0V99.474Z" fill="white"/>
<path d="M11.9988 83.4167L0.0456543 111.16H7.82776L10.0333 105.605H22.8549L25.049 111.16H33.0025L21.0608 83.4167H11.9988ZM16.4212 89.8734L20.3294 99.5813H12.5016L16.4212 89.8734Z" fill="#016FD0"/>
<path d="M33.8252 111.155V83.4121L44.884 83.4531L51.3162 101.34L57.5943 83.4121H68.5647V111.155H61.6168V90.713L54.2519 111.155H48.1586L40.7731 90.713V111.155H33.8252Z" fill="#016FD0"/>
<path d="M73.3186 111.155V83.4121H95.9907V89.6179H80.3396V94.3634H95.625V100.204H80.3396V105.132H95.9907V111.155H73.3186Z" fill="#016FD0"/>
<path d="M100.013 83.4167V111.16H106.961V101.304H109.887L118.217 111.16H126.708L117.566 100.939C121.318 100.623 125.188 97.4081 125.188 92.4174C125.188 86.5792 120.598 83.4167 115.475 83.4167H100.013ZM106.961 89.6225H114.903C116.808 89.6225 118.194 91.1102 118.194 92.5428C118.194 94.3859 116.399 95.4632 115.006 95.4632H106.961V89.6225Z" fill="#016FD0"/>
<path d="M135.118 111.155H128.024V83.4121H135.118V111.155Z" fill="#016FD0"/>
<path d="M151.94 111.155H150.408C142.999 111.155 138.501 105.328 138.501 97.3978C138.501 89.2713 142.949 83.4121 152.305 83.4121H159.985V89.9829H152.025C148.226 89.9829 145.54 92.9418 145.54 97.4662C145.54 102.839 148.612 105.096 153.037 105.096H154.865L151.94 111.155Z" fill="#016FD0"/>
<path d="M167.058 83.4167L155.105 111.16H162.887L165.093 105.605H177.914L180.108 111.16H188.062L176.12 83.4167H167.058ZM171.481 89.8734L175.389 99.5813H167.561L171.481 89.8734Z" fill="#016FD0"/>
<path d="M188.873 111.155V83.4121H197.707L208.986 100.843V83.4121H215.934V111.155H207.386L195.821 93.2683V111.155H188.873Z" fill="#016FD0"/>
<path d="M50.6465 159.706V131.963H73.3186V138.169H57.6675V142.914H72.9529V148.755H57.6675V153.683H73.3186V159.706H50.6465Z" fill="#016FD0"/>
<path d="M161.74 159.706V131.963H184.412V138.169H168.761V142.914H183.973V148.755H168.761V153.683H184.412V159.706H161.74Z" fill="#016FD0"/>
<path d="M74.1986 159.706L85.2376 146.006L73.9358 131.963H82.6892L89.42 140.644L96.1736 131.963H104.584L93.4311 145.835L104.49 159.706H95.7383L89.2029 151.162L82.8264 159.706H74.1986Z" fill="#016FD0"/>
<path d="M105.316 131.968V159.711H112.446V150.95H119.76C125.948 150.95 130.639 147.672 130.639 141.299C130.639 136.019 126.96 131.968 120.663 131.968H105.316ZM112.446 138.242H120.149C122.148 138.242 123.577 139.465 123.577 141.436C123.577 143.287 122.155 144.63 120.126 144.63H112.446V138.242Z" fill="#016FD0"/>
<path d="M133.656 131.963V159.706H140.604V149.85H143.529L151.86 159.706H160.35L151.208 149.485C154.96 149.169 158.83 145.954 158.83 140.963C158.83 135.125 154.24 131.963 149.117 131.963H133.656ZM140.604 138.169H148.546C150.451 138.169 151.837 139.656 151.837 141.089C151.837 142.932 150.041 144.009 148.649 144.009H140.604V138.169Z" fill="#016FD0"/>
<path d="M187.63 159.706V153.683H201.535C203.592 153.683 204.483 152.573 204.483 151.356C204.483 150.19 203.595 149.01 201.535 149.01H195.251C189.79 149.01 186.748 145.689 186.748 140.701C186.748 136.253 189.533 131.963 197.65 131.963H211.18L208.254 138.205H196.553C194.316 138.205 193.627 139.377 193.627 140.496C193.627 141.646 194.478 142.914 196.187 142.914H202.769C208.858 142.914 211.5 146.362 211.5 150.877C211.5 155.731 208.556 159.706 202.438 159.706H187.63Z" fill="#016FD0"/>
<path d="M213.13 159.706V153.683H227.035C229.093 153.683 229.983 152.573 229.983 151.356C229.983 150.19 229.095 149.01 227.035 149.01H220.752C215.29 149.01 212.248 145.689 212.248 140.701C212.248 136.253 215.034 131.963 223.15 131.963H236.68L233.755 138.205H222.053C219.816 138.205 219.127 139.377 219.127 140.496C219.127 141.646 219.978 142.914 221.687 142.914H228.269C234.358 142.914 237 146.362 237 150.877C237 155.731 234.056 159.706 227.938 159.706H213.13Z" fill="#016FD0"/>
</g>
<defs>
<clipPath id="clip0_5394_9562">
<rect width="237" height="236" fill="white"/>
</clipPath>
</defs>
</svg>
