<svg width="237" height="236" viewBox="0 0 237 236" fill="none" xmlns="http://www.w3.org/2000/svg">
<g clip-path="url(#clip0_5394_9582)">
<path d="M79 83.6072C79 95.3882 86.2512 105.269 96.5556 109.069V58.145C86.2512 61.9453 79 71.8262 79 83.6072Z" fill="#006AC9"/>
<path d="M116.019 58.145V109.069C126.324 105.269 133.575 95.0081 133.575 83.6072C133.575 71.8262 126.324 61.9453 116.019 58.145Z" fill="#004A97"/>
<path d="M116.019 109.069C126.324 105.269 133.575 95.0081 133.575 83.6072L116.019 109.069Z" fill="#023563"/>
<path d="M128.614 36.4832H106.478C80.1449 36.4832 58.7729 55.8648 58.7729 83.9872C58.7729 109.829 80.1449 130.731 106.478 130.731H128.614C154.565 130.731 178.227 109.829 178.227 83.9872C177.845 55.8648 154.184 36.4832 128.614 36.4832ZM106.478 126.551C82.4348 126.551 63.3527 107.169 63.3527 83.6071C63.3527 59.6651 82.8164 40.2835 106.478 40.2835C130.522 40.2835 149.986 59.6651 149.986 83.6071C149.604 107.549 130.14 126.551 106.478 126.551Z" fill="#023563"/>
<path d="M9.9227 163.034C9.9227 166.834 12.5942 167.214 15.2657 167.214C25.9517 167.214 29.7681 159.234 29.7681 151.633C29.7681 142.132 23.6618 135.672 14.1208 135.672C12.2126 135.672 11.0676 135.671 10.3043 136.052V163.034H9.9227ZM4.96135 139.472C4.96135 134.911 2.6715 135.291 0.381643 135.291V134.151C2.28986 134.151 4.19807 134.151 6.10628 134.151C8.39614 134.151 11.0676 134.151 14.8841 134.151C27.8599 134.151 34.7295 142.892 34.7295 151.633C34.7295 156.573 31.6763 169.114 14.1208 169.114C11.4493 169.114 9.15942 169.114 6.86957 169.114C4.57971 169.114 2.28986 169.114 0 169.114V167.974C3.05314 167.594 4.57971 167.594 4.57971 164.174V139.472H4.96135Z" fill="#004A97"/>
<path d="M42.3623 138.332C41.2174 138.332 40.0724 137.192 40.0724 135.672C40.0724 134.531 41.2174 133.391 42.3623 133.391C43.5072 133.391 44.6521 134.531 44.6521 135.672C44.6521 137.192 43.5072 138.332 42.3623 138.332ZM37.0193 167.594H38.1642C39.6908 167.594 40.4541 167.594 40.4541 166.074V152.393C40.4541 150.113 39.6908 149.733 37.7826 148.973V148.213C40.0724 147.453 42.7439 146.692 43.1256 146.312C43.5072 145.932 43.8889 145.932 43.8889 145.932C44.2705 145.932 44.2705 146.312 44.2705 146.692V165.694C44.2705 167.214 45.4154 167.214 46.942 167.214H47.7053V168.354C46.1787 168.354 44.2705 168.354 42.3623 168.354C40.4541 168.354 38.9275 168.354 37.0193 168.354V167.594Z" fill="#004A97"/>
<path d="M52.2851 152.773C52.2851 150.873 51.9035 150.493 49.232 149.353V148.592C51.5218 147.832 53.4301 147.072 55.7199 146.312C55.7199 146.312 56.1015 146.312 56.1015 146.692V150.113C58.773 148.212 61.4445 146.312 64.8793 146.312C69.0774 146.312 70.604 149.353 70.604 153.153V166.074C70.604 167.594 71.7489 167.594 73.2755 167.594H74.0387V168.734C72.1305 168.734 70.604 168.734 68.6958 168.734C66.7875 168.734 65.261 168.734 63.3528 168.734V167.594H64.116C65.6426 167.594 66.4059 167.594 66.4059 166.074V153.153C66.4059 150.493 64.4977 148.972 61.8262 148.972C60.2996 148.972 57.6281 150.113 56.1015 151.253V166.074C56.1015 167.594 57.2465 167.594 58.773 167.594H59.5363V168.734C57.6281 168.734 56.1015 168.734 54.1933 168.734C52.2851 168.734 50.7586 168.734 48.8503 168.734V167.594H49.9953C51.5218 167.594 52.2851 167.594 52.2851 166.074V152.773Z" fill="#004A97"/>
<path d="M86.6328 153.533C87.7777 153.533 88.1594 152.773 88.1594 152.393C88.1594 149.733 86.6328 147.832 83.9613 147.832C80.9081 147.832 78.6183 150.113 78.2366 153.533H86.6328ZM77.855 155.053C77.855 155.433 77.855 156.193 77.855 158.093C78.2366 162.654 81.2898 166.834 85.1062 166.834C87.7777 166.834 90.0676 165.314 91.9758 163.414L92.7391 164.174C90.4492 167.214 87.3961 169.874 83.5796 169.874C75.5651 169.874 74.0386 162.274 74.0386 158.853C74.0386 148.972 80.5265 146.312 83.9613 146.312C88.1593 146.312 92.3574 148.972 92.3574 154.293C92.3574 154.673 92.3574 155.053 92.3574 155.053H91.9758H77.855Z" fill="#004A97"/>
<path d="M93.5023 167.594H95.0289C96.5554 167.594 97.3187 167.594 97.3187 166.074V152.013C97.3187 150.493 95.4105 150.113 94.6472 149.733V148.972C98.4637 147.452 100.372 146.312 100.754 146.312C101.135 146.312 101.135 146.312 101.135 147.072V151.633C102.28 149.733 104.57 146.692 107.623 146.692C108.768 146.692 110.295 147.452 110.295 149.353C110.295 150.873 109.531 152.013 108.005 152.013C106.478 152.013 106.478 150.873 104.57 150.873C103.807 150.873 100.754 152.013 100.754 155.053V166.834C100.754 168.354 101.898 168.354 103.043 168.354H105.715V169.494C103.043 169.494 100.754 169.494 98.8453 169.494C96.9371 169.494 94.6472 169.494 92.739 169.494V167.594H93.5023Z" fill="#004A97"/>
<path d="M112.966 161.894C113.729 165.314 115.638 167.974 119.454 167.974C122.507 167.974 123.652 166.074 123.652 164.554C123.652 158.853 112.585 160.754 112.585 152.393C112.585 149.733 114.874 145.932 120.217 145.932C121.744 145.932 124.034 146.312 125.942 147.452L126.324 152.393H125.179C124.797 149.353 122.889 147.452 119.836 147.452C117.928 147.452 116.019 148.593 116.019 150.873C116.019 156.573 127.469 155.053 127.469 162.654C127.469 166.074 124.797 169.494 118.691 169.494C116.783 169.494 114.493 168.734 112.585 167.974L112.203 162.274L112.966 161.894Z" fill="#004A97"/>
<path d="M172.502 142.892H171.358C170.594 137.192 166.396 134.911 160.672 134.911C154.947 134.911 146.551 138.712 146.551 150.873C146.551 160.754 153.802 167.974 161.435 167.974C166.396 167.974 170.594 164.554 171.358 159.234L172.502 159.614L171.358 166.834C169.068 167.974 163.725 169.494 160.29 169.494C148.459 169.494 141.208 161.894 141.208 150.873C141.208 140.612 150.367 133.391 160.29 133.391C164.488 133.391 168.304 134.531 172.121 136.052L172.502 142.892Z" fill="#004A97"/>
<path d="M174.411 167.594H175.174C176.701 167.594 177.464 167.594 177.464 166.074V138.332C177.464 134.911 176.7 134.911 174.792 134.531V133.771C176.7 133.011 178.99 132.251 180.135 131.491C180.517 131.111 180.899 131.111 181.28 131.111C181.662 131.111 181.662 131.491 181.662 131.871V166.454C181.662 167.974 182.807 167.974 184.333 167.974H185.097V169.114C183.57 169.114 181.662 169.114 179.754 169.114C177.845 169.114 176.319 169.114 174.411 169.114V167.594Z" fill="#004A97"/>
<path d="M206.469 166.074C206.469 166.834 206.85 166.834 207.995 166.834C208.759 166.834 209.522 166.834 209.903 166.834V167.974C207.614 168.354 203.797 169.114 202.652 169.494H202.271V165.314C199.217 167.594 196.928 169.494 193.493 169.494C190.821 169.494 188.15 167.594 188.15 163.414V150.493C188.15 149.353 187.768 147.832 185.097 147.832V147.072C187.005 147.072 190.821 146.692 191.585 146.692C191.966 146.692 191.966 147.072 191.966 148.213V161.134C191.966 162.654 191.966 166.834 196.164 166.834C197.691 166.834 199.981 165.694 202.271 163.794V150.493C202.271 149.353 199.981 148.973 198.073 148.593V147.832C202.652 147.452 205.324 147.072 205.705 147.072C206.087 147.072 206.087 147.452 206.087 147.832V166.074H206.469Z" fill="#004A97"/>
<path d="M216.391 163.034C216.391 164.934 218.299 167.974 221.734 167.974C227.077 167.974 229.367 162.654 229.367 158.474C229.367 153.153 225.169 148.593 221.353 148.593C219.444 148.593 217.918 149.733 216.773 150.873V163.034H216.391ZM216.391 149.733C218.299 148.213 220.971 146.312 224.024 146.312C229.749 146.312 233.184 151.253 233.184 156.953C233.184 163.414 228.222 169.874 221.353 169.874C217.536 169.874 215.628 168.734 214.483 167.974L212.956 169.114L211.812 168.734C212.193 165.694 212.575 163.034 212.575 159.994V138.712C212.575 135.292 211.812 135.292 209.903 134.912V134.151C211.812 133.391 214.101 132.631 215.246 131.871C215.628 131.491 216.01 131.491 216.391 131.491C216.773 131.491 216.773 131.871 216.773 132.251V149.733H216.391Z" fill="#004A97"/>
<path d="M0.763234 197.617C1.90816 197.617 2.67145 197.617 2.67145 196.097V182.036C2.67145 180.515 1.52652 180.515 0.763234 180.515H0.381592V179.755C1.52652 179.755 3.05309 179.755 4.57966 179.755C6.10623 179.755 7.6328 179.755 8.77773 179.755V180.515H8.39608C7.25116 180.515 6.48787 180.515 6.48787 182.036V196.097C6.48787 197.617 7.25116 197.617 8.39608 197.617H8.77773V198.377C7.6328 198.377 5.72459 198.377 4.57966 198.377C3.43473 198.377 1.52652 198.377 0.763234 198.377V197.617Z" fill="#006AC9"/>
<path d="M8.77773 198.377V197.617H8.39608C7.25116 197.617 6.10623 197.617 6.10623 196.097V182.036C6.10623 180.515 7.25116 180.515 8.39608 180.515H8.77773V179.755C7.6328 179.755 6.10623 179.755 4.57966 179.755C3.43473 179.755 1.90816 179.755 0.763234 179.755V180.515H1.14488C2.2898 180.515 3.43473 180.515 3.43473 182.036V196.097C3.43473 197.617 2.2898 197.617 1.14488 197.617H0.763234V198.377C1.90816 198.377 3.43473 198.377 4.57966 198.377C5.72459 198.377 7.25116 198.377 8.77773 198.377ZM8.77773 198.757C7.6328 198.757 5.72459 198.757 4.57966 198.757C3.43473 198.757 1.52652 198.757 0.763234 198.757V197.617H1.14488C2.2898 197.617 3.05309 197.617 3.05309 196.097V182.036C3.05309 180.515 2.2898 180.515 1.14488 180.515H0.381592V179.755C1.52652 179.755 3.05309 179.755 4.57966 179.755C6.10623 179.755 7.6328 179.755 8.77773 179.755V180.515H8.39608C7.25116 180.515 6.48787 180.515 6.48787 182.036V196.097C6.48787 197.617 7.25116 197.617 8.39608 197.617H8.77773V198.757Z" fill="#006AC9"/>
<path d="M27.4782 193.056V182.796C27.4782 180.515 25.9516 180.135 25.1884 180.135H24.4251V179.375C25.57 179.375 27.0966 179.375 28.2415 179.375C29.3864 179.375 30.5314 179.375 31.6763 179.375V180.135H31.2946C30.1497 180.135 29.0048 180.515 29.0048 183.556V195.717C29.0048 196.477 29.0048 197.617 29.0048 198.377H27.8599L13.7391 182.796V193.816C13.7391 196.097 14.1207 196.857 16.4106 196.857H16.7922V197.617C15.6473 197.617 14.5024 197.617 13.3574 197.617C12.2125 197.617 11.0676 197.617 9.54102 197.617H9.92266C11.8309 197.617 12.2125 196.477 12.2125 194.196V182.796C12.2125 181.275 11.0676 180.515 9.92266 180.515V179.755C11.0676 179.755 12.2125 179.755 12.9758 179.755C13.7391 179.755 14.5024 179.755 15.2657 179.755L27.4782 193.056Z" fill="#006AC9"/>
<path d="M27.8599 198.757H28.6231C28.6231 197.997 28.6231 196.857 28.6231 196.097V183.936C28.6231 180.515 30.1497 180.515 31.2946 180.515H31.6763V179.755C30.5314 179.755 29.3864 179.755 28.6231 179.755C27.4782 179.755 26.3333 179.755 24.8067 179.755V180.515H25.1884C25.9516 180.515 27.8599 180.895 27.8599 183.176V193.437L15.6473 179.755C14.884 179.755 14.1207 179.755 13.3574 179.755C12.2125 179.755 11.4492 179.755 10.3043 179.755V180.515H10.6859C11.8309 180.515 13.3574 181.656 13.3574 183.176V194.577C13.3574 196.857 12.5942 197.997 10.6859 197.997H10.3043V198.757C11.4492 198.757 12.5942 198.757 13.7391 198.757C14.884 198.757 16.0289 198.757 17.1739 198.757V197.997H16.4106C14.1207 197.997 13.7391 197.237 13.7391 194.577V183.176L27.8599 198.757ZM29.0048 199.137H27.8599L14.1207 183.936V194.957C14.1207 197.237 14.5024 197.997 16.4106 197.997H17.1739V198.757C16.0289 198.757 14.884 198.757 13.7391 198.757C12.5942 198.757 11.4492 198.757 9.92266 198.757V197.617H10.3043C12.2125 197.617 12.5942 196.477 12.5942 194.197V182.796C12.5942 181.275 11.4492 180.515 10.3043 180.515H9.54102V179.755C10.6859 179.755 11.8309 179.755 12.5942 179.755C13.3574 179.755 14.1207 179.755 15.2657 179.755L27.0966 193.056V183.176C27.0966 180.895 25.57 180.895 24.8067 180.895H24.4251V180.135C25.57 180.135 27.0966 180.135 28.2415 180.135C29.3864 180.135 30.5314 180.135 31.6763 180.135V180.895H31.2946C30.1497 180.895 29.0048 180.895 29.0048 184.316V196.477C29.0048 197.237 29.0048 197.997 29.0048 199.137Z" fill="#006AC9"/>
<path d="M35.8742 180.895C33.966 180.895 33.5844 181.275 33.2027 183.176H32.4395C32.4395 182.416 32.8211 181.655 32.8211 180.895C32.8211 180.135 32.8211 179.375 32.8211 178.615H33.5844C33.966 179.375 34.3477 179.375 35.111 179.375H49.2317C49.995 179.375 50.7583 179.375 50.7583 178.615H51.5216C51.5216 179.375 51.1399 180.135 51.1399 180.895C51.1399 181.655 51.1399 182.416 51.1399 183.176L50.3767 183.556C50.3767 182.416 50.3767 180.895 48.4684 180.895H43.8887V195.337C43.8887 197.237 44.652 197.617 46.1786 197.617H46.5602V198.377C45.4153 198.377 43.5071 198.377 41.9805 198.377C40.4539 198.377 38.5457 198.377 37.4008 198.377V197.617H37.7824C39.309 197.617 40.0723 197.617 40.0723 195.337V180.895H35.8742Z" fill="#006AC9"/>
<path d="M46.5602 198.757C45.4153 198.757 43.5071 198.757 41.9805 198.757C40.4539 198.757 38.5457 198.757 37.4008 198.757V197.617H37.7824C39.309 197.617 40.0723 197.617 40.0723 195.337V180.895H35.8742H40.4539V195.337C40.4539 197.617 39.6907 197.617 38.1641 197.617H37.7824V198.377C38.9274 198.377 40.8356 198.377 42.3622 198.377C43.5071 198.377 45.4153 198.377 46.5602 198.757V197.997H46.1786C45.0337 197.997 43.8887 197.617 43.8887 195.717V181.275H48.4684C50.3766 181.275 50.3767 182.796 50.7583 183.936L51.5216 183.556C51.5216 182.796 51.5216 182.035 51.5216 181.275C51.5216 180.515 51.5216 179.755 51.9032 179.375H51.5216C51.5216 180.135 50.7583 180.135 49.995 180.135H35.8742C35.1109 180.135 34.3477 180.135 34.3477 179.375H33.2027C33.2027 180.135 33.2027 180.895 33.2027 181.655C33.2027 182.415 32.8211 183.176 32.8211 183.936H33.5844C33.966 182.035 34.3477 181.275 36.2559 181.655C34.3477 181.655 34.3477 182.035 33.966 183.936H32.4395C32.4395 183.176 32.8211 182.415 32.8211 181.655C32.8211 180.895 32.8211 180.135 32.8211 179.375H33.5844C33.5844 180.135 34.3477 180.135 35.1109 180.135H49.2317C49.995 180.135 50.3767 180.135 50.7583 179.375H51.5216C51.5216 180.135 51.1399 180.895 51.1399 181.655C51.1399 182.415 51.1399 183.176 51.1399 183.936H49.995C49.995 182.796 49.995 181.275 48.0868 181.275H43.8887V195.717C43.8887 197.617 44.652 197.997 46.1786 197.997H46.9419L46.5602 198.757Z" fill="#006AC9"/>
<path d="M52.6666 197.617C53.8115 197.617 54.5748 197.617 54.5748 196.097V182.036C54.5748 180.515 53.4298 180.515 52.6666 180.515H52.2849V179.755C53.8115 179.755 56.8646 179.755 59.1545 179.755C61.4443 179.755 64.1158 179.755 66.024 179.755C66.024 180.895 66.024 182.796 66.024 183.936H65.2608C65.2608 182.036 64.8791 180.895 61.826 180.895H58.0096V188.116H61.4443C62.9709 188.116 63.3525 187.356 63.7342 185.836H64.4975C64.4975 186.976 64.4975 188.116 64.4975 188.876C64.4975 190.016 64.4975 190.776 64.4975 191.916H63.7342C63.7342 190.396 63.3525 189.256 61.4443 189.256H58.0096V195.717C58.0096 197.617 59.5361 197.617 61.4443 197.617C64.8791 197.617 66.024 197.237 67.169 194.197H67.9323C67.5506 195.717 67.169 197.237 67.169 198.377C65.2608 198.377 62.2076 198.377 59.9178 198.377C57.6279 198.377 54.1931 198.377 52.6666 198.377V197.617Z" fill="#006AC9"/>
<path d="M66.7873 198.377C67.169 196.857 67.169 195.717 67.5506 194.197H67.169C66.4057 197.237 64.8791 197.617 61.4443 197.617C59.9178 197.617 58.0095 197.617 58.0095 195.717V189.256H61.4443C63.3525 189.256 63.3525 190.396 63.7342 191.916H64.4975C64.4975 190.776 64.4975 190.016 64.4975 188.876C64.4975 187.736 64.4975 186.976 64.4975 185.836H63.7342C63.7342 187.356 62.9709 188.116 61.4443 188.116H58.0095V180.895H61.826C64.4975 180.895 65.2608 182.416 65.2608 183.936H66.024C66.024 183.176 66.024 182.036 66.024 181.276C66.024 180.895 66.024 180.515 66.024 180.135C64.1158 180.135 61.4443 180.135 59.1545 180.135C56.8646 180.135 54.1931 180.135 52.6666 180.135V180.895H53.0482C54.1931 180.895 55.3381 180.895 55.3381 182.416V196.477C55.3381 197.997 54.1931 197.997 53.0482 197.997H52.6666V198.757C54.1931 198.757 57.2463 198.757 59.9178 198.757C61.826 198.377 64.8791 198.377 66.7873 198.377ZM66.7873 198.757C64.8791 198.757 61.826 198.757 59.5361 198.757C57.2463 198.757 53.8115 198.757 52.2849 198.757V197.617H52.6666C53.8115 197.617 54.5748 197.617 54.5748 196.097V182.036C54.5748 180.895 53.8115 180.515 52.6666 180.515H52.2849V179.755C53.8115 179.755 56.8646 179.755 59.1545 179.755C61.4443 179.755 64.1158 179.755 66.024 179.755C66.024 180.135 66.024 180.515 66.024 181.276C66.024 182.036 66.024 183.176 66.024 183.936L65.2608 184.316C65.2608 182.416 64.8791 181.276 62.2076 181.276H58.3912V188.116H61.4443C62.9709 188.116 63.3525 187.356 63.3525 185.836H64.1158C64.1158 186.976 64.1158 188.116 64.1158 188.876C64.1158 190.016 64.1158 190.776 64.1158 191.916H63.3525C63.3525 190.396 62.9709 189.256 61.4443 189.256H58.3912V195.337C58.3912 196.857 59.9178 196.857 61.4443 196.857C64.8791 196.857 66.024 196.857 66.7873 193.817L67.5506 194.197C67.5506 195.717 67.169 197.237 66.7873 198.757Z" fill="#006AC9"/>
<path d="M74.8018 188.876H75.9468C78.6183 188.876 80.1448 187.736 80.1448 184.696C80.1448 182.416 78.6183 180.895 76.3284 180.895C75.5651 180.895 75.1835 180.895 74.8018 180.895V188.876ZM71.3671 182.416C71.3671 180.515 70.2221 180.515 69.4588 180.515H69.0772V179.755C69.8405 179.755 71.7487 179.755 73.2753 179.755C74.8018 179.755 76.3284 179.755 77.4733 179.755C80.9081 179.755 83.9613 180.515 83.9613 184.696C83.9613 186.976 82.4347 188.496 80.1448 189.636L84.7245 196.477C85.4878 197.617 85.8695 197.997 87.396 197.997V198.757C86.6328 198.757 85.4878 198.757 84.7245 198.757C83.9613 198.757 82.8163 198.757 82.053 198.757C80.1448 196.097 78.2366 193.057 76.3284 190.016H74.4202V195.717C74.4202 197.617 75.5651 197.997 76.7101 197.997H77.0917V198.757C75.5651 198.757 74.0386 198.757 72.512 198.757C71.3671 198.757 69.8405 198.757 68.6956 198.757V197.617H69.0772C70.2221 197.617 70.9854 197.237 70.9854 196.097V182.416H71.3671Z" fill="#006AC9"/>
<path d="M76.3284 188.876C78.9999 188.876 80.5264 188.116 80.5264 184.696C80.5264 182.416 78.9999 180.895 76.71 180.895C75.9467 180.895 75.5651 180.895 75.1834 180.895V188.876H76.3284ZM74.8018 188.876V180.515C75.1834 180.515 75.5651 180.515 76.3284 180.515C78.6182 180.515 80.5264 182.036 80.5264 184.696C80.5264 188.116 78.9999 188.876 76.3284 188.876H74.8018ZM74.8018 189.636H76.71C78.6182 192.676 80.1448 195.717 82.4346 198.377C83.1979 198.377 83.9612 198.377 85.1061 198.377C85.8694 198.377 87.0143 198.377 87.7776 198.377V197.617C86.6327 197.617 85.8694 197.237 85.1061 196.097L80.5264 188.876C82.8163 188.116 84.3428 186.596 84.3428 184.316C84.3428 180.515 81.2897 179.755 77.8549 179.755C76.3284 179.755 75.1834 179.755 73.6569 179.755C72.1303 179.755 70.6037 179.755 69.4588 179.755V180.515H69.8404C70.6037 180.515 71.7486 180.515 71.7486 182.796V196.477C71.7486 197.617 70.6037 197.997 69.8404 197.997H69.0771V198.757C70.2221 198.757 71.7486 198.757 72.8936 198.757C74.4201 198.757 75.9467 198.757 77.4733 198.757V197.997H77.0916C75.9467 197.997 74.8018 197.997 74.8018 195.717V189.636ZM87.7776 198.757C87.0143 198.757 85.8694 198.757 85.1061 198.757C84.3428 198.757 83.5796 198.757 82.4346 198.757C80.5264 196.097 78.6182 193.057 76.71 190.016H75.1834V195.717C75.1834 197.617 75.9467 197.617 77.4733 197.617H78.2366V198.377C76.71 198.377 75.1834 198.377 73.6569 198.377C72.5119 198.377 70.9854 198.377 69.8404 198.377V197.617H70.2221C71.367 197.617 72.1303 197.237 72.1303 196.097V182.416C72.1303 180.515 70.9854 180.515 70.2221 180.515H69.0771V179.755C69.8404 179.755 71.7486 179.755 73.2752 179.755C74.8018 179.755 76.3284 179.755 77.4733 179.755C80.9081 179.755 83.9612 180.895 83.9612 184.696C83.9612 186.976 82.4346 188.496 80.1448 189.636L84.7245 196.477C85.4878 197.617 85.8694 197.997 87.396 197.997L87.7776 198.757Z" fill="#006AC9"/>
<path d="M106.097 193.056V182.796C106.097 180.515 104.57 180.135 103.807 180.135H103.043V179.375C104.188 179.375 105.715 179.375 106.86 179.375C108.005 179.375 109.15 179.375 110.295 179.375V180.135H109.913C108.768 180.135 107.623 180.515 107.623 183.556V195.717C107.623 196.477 107.623 197.617 107.623 198.377H106.478L92.3575 182.796V193.816C92.3575 196.097 92.7391 196.857 95.029 196.857H95.7923V197.617C94.6473 197.617 93.5024 197.617 92.3575 197.617C91.2126 197.617 90.0676 197.617 88.5411 197.617H88.9227C90.8309 197.617 91.2126 196.477 91.2126 194.196V182.796C91.2126 181.275 90.0676 180.515 88.5411 180.515H88.1594V179.755C89.3044 179.755 90.0676 179.755 91.2126 179.755C91.9758 179.755 92.7391 179.755 93.5024 179.755L106.097 193.056Z" fill="#006AC9"/>
<path d="M106.478 198.757H107.242C107.242 197.997 107.242 196.857 107.242 196.097V183.936C107.242 180.515 108.768 180.515 109.913 180.515H110.295V179.755C109.15 179.755 108.005 179.755 107.242 179.755C106.097 179.755 104.952 179.755 103.425 179.755V180.515H103.807C104.57 180.515 106.478 180.895 106.478 183.176V193.437L94.2657 179.755C93.5024 179.755 92.7391 179.755 91.9758 179.755C90.8309 179.755 90.0676 179.755 88.9227 179.755V180.515H89.3043C90.4493 180.515 91.9758 181.656 91.9758 183.176V194.577C91.9758 196.857 91.2126 197.997 89.3043 197.997H88.9227V198.757C90.0676 198.757 91.2126 198.757 92.3575 198.757C93.5024 198.757 94.6473 198.757 95.7923 198.757V197.997H95.4106C93.1208 197.997 92.7391 197.237 92.7391 194.577V183.176L106.478 198.757ZM107.623 199.137H106.478L92.7391 183.936V194.957C92.7391 197.237 93.1208 197.997 95.029 197.997H95.7923V198.757C94.6473 198.757 93.5024 198.757 92.3575 198.757C91.2126 198.757 90.0676 198.757 88.5411 198.757V197.617H88.9227C90.8309 197.617 91.2126 196.477 91.2126 194.197V182.796C91.2126 181.275 90.0676 180.515 88.9227 180.515H88.1594V179.755C89.3044 179.755 90.4493 179.755 91.2126 179.755C91.9758 179.755 92.7391 179.755 93.8841 179.755L105.715 193.056V183.176C105.715 180.895 104.188 180.895 103.425 180.895H102.662V180.135C103.807 180.135 105.333 180.135 106.478 180.135C107.623 180.135 108.768 180.135 109.913 180.135V180.895H109.531C108.386 180.895 107.242 180.895 107.242 184.316V196.477C107.623 197.237 107.623 197.997 107.623 199.137Z" fill="#006AC9"/>
<path d="M118.691 182.796L116.019 190.396H120.981L118.691 182.796ZM114.874 194.577C114.493 195.337 114.111 196.097 114.111 196.857C114.111 197.617 115.256 197.617 116.019 197.617H116.401V198.377C115.256 198.377 114.111 198.377 112.966 198.377C111.821 198.377 111.058 198.377 109.913 198.377V197.617C111.058 197.617 111.821 196.857 112.203 195.717L116.401 183.176C116.783 182.036 117.164 180.895 117.546 179.755C118.309 179.375 119.454 178.995 120.217 178.615C120.217 178.615 120.217 178.615 120.599 178.615C120.599 178.995 120.599 178.995 120.981 179.375L126.324 193.817C126.705 194.577 127.087 195.717 127.469 196.477C127.85 197.237 128.232 197.617 129.377 197.617V198.377C128.232 198.377 127.087 198.377 125.56 198.377C124.034 198.377 122.889 198.377 121.362 198.377V197.617H121.744C122.507 197.617 123.271 197.617 123.271 196.857C123.271 196.477 122.889 195.717 122.889 194.957L121.744 191.916H115.638L114.874 194.577Z" fill="#006AC9"/>
<path d="M116.401 190.396H121.362L118.691 182.796L116.401 190.396ZM116.019 190.396L118.691 182.416L121.362 190.396H116.019ZM121.362 198.377C122.889 198.377 124.034 198.377 125.179 198.377C126.324 198.377 127.469 198.377 128.995 198.377V197.617C128.232 197.617 127.469 197.237 127.087 196.477C126.705 196.097 126.324 194.957 126.324 193.817L121.362 179.755C121.362 179.375 121.362 179.375 120.981 178.995C120.599 179.375 119.454 179.755 118.691 180.135C118.691 181.276 117.928 182.416 117.546 183.556L113.348 196.097C112.966 197.237 111.821 197.997 110.676 197.997V198.757C111.44 198.757 112.585 198.757 113.348 198.757C114.493 198.757 115.638 198.757 116.401 198.757V197.997C115.638 197.997 114.111 197.997 114.111 196.857C114.111 196.477 114.493 195.717 114.874 194.577L115.638 191.536H122.126L123.271 194.577C123.652 195.337 123.652 196.097 123.652 196.477C123.652 197.237 122.507 197.237 121.744 197.237V198.377H121.362ZM129.377 198.757C128.232 198.757 127.087 198.757 125.56 198.757C124.034 198.757 122.889 198.757 121.362 198.757V197.617H121.744C122.507 197.617 123.271 197.617 123.271 196.857C123.271 196.477 122.889 195.717 122.889 194.957L121.744 191.916H115.638L114.874 194.577C114.493 195.337 114.111 196.097 114.111 196.477C114.111 197.237 115.256 197.237 116.019 197.237H116.401V197.997C115.256 197.997 114.111 197.997 112.966 197.997C111.821 197.997 111.058 197.997 109.913 197.997V197.617C111.058 197.617 111.821 196.857 112.203 196.097L116.401 183.556C116.783 182.416 117.164 181.276 117.546 180.135C118.309 179.755 119.454 179.375 119.836 178.995C119.836 178.995 119.836 178.995 120.217 178.995H120.599C120.599 179.375 120.599 179.375 120.981 179.755L126.324 193.817C126.705 194.957 127.087 195.717 127.469 196.477C127.85 197.237 128.232 197.617 128.995 197.617H129.377V198.757Z" fill="#006AC9"/>
<path d="M130.522 180.895C128.613 180.895 128.232 181.275 127.85 183.176H127.087C127.087 182.416 127.469 181.655 127.469 180.895C127.469 180.135 127.469 179.375 127.469 178.615H128.232C128.613 179.375 128.995 179.375 129.758 179.375H143.879C144.642 179.375 145.406 179.375 145.406 178.615H146.169C146.169 179.375 145.787 180.135 145.787 180.895C145.787 181.655 145.787 182.416 145.787 183.176L145.024 183.556C145.024 182.416 144.642 180.895 143.116 180.895H138.536V195.337C138.536 197.237 139.299 197.617 140.826 197.617H141.208V198.377C140.063 198.377 138.155 198.377 136.628 198.377C135.101 198.377 133.193 198.377 132.048 198.377V197.617H132.43C133.956 197.617 134.72 197.617 134.72 195.337V180.895H130.522Z" fill="#006AC9"/>
<path d="M141.208 198.757C140.063 198.757 138.155 198.757 136.628 198.757C135.102 198.757 133.193 198.757 132.048 198.757V197.617H132.43C133.957 197.617 134.338 197.617 134.72 195.337V180.895H130.522H135.102V195.337C135.102 197.617 134.338 197.617 132.812 197.617H132.43V198.377C133.575 198.377 135.483 198.377 137.01 198.377C138.155 198.377 140.063 198.377 141.208 198.757V197.997H140.826C139.681 197.997 138.536 197.617 138.536 195.717V181.275H143.116C145.024 181.275 145.024 182.796 145.406 183.936L146.169 183.556C146.169 182.796 146.169 182.035 146.169 181.275C146.169 180.515 146.169 179.755 146.551 179.375H146.169C146.169 180.135 145.406 180.135 144.643 180.135H130.522C129.759 180.135 129.377 180.135 128.995 179.375H128.614C128.614 180.135 128.614 180.895 128.614 181.655C128.614 182.415 128.232 183.176 128.232 183.936H128.995C129.377 182.035 129.759 181.275 131.667 181.655C129.759 181.655 129.759 182.035 129.377 183.936H128.232C128.232 183.176 128.614 182.415 128.614 181.655C128.614 180.895 128.614 180.135 128.614 179.375H129.377C129.377 180.135 130.14 180.135 130.903 180.135H145.024C145.787 180.135 146.169 180.135 146.551 179.375H147.314C147.314 180.135 146.932 180.895 146.932 181.655C146.932 182.415 146.932 183.176 146.932 183.936L145.787 184.316C145.787 183.176 145.787 181.655 143.879 181.655H139.681V196.097C139.681 197.997 140.445 198.377 141.971 198.377H142.734L141.208 198.757Z" fill="#006AC9"/>
<path d="M146.932 197.617C148.459 197.617 149.222 197.617 149.222 196.097V182.036C149.222 180.515 148.077 180.515 147.314 180.515H146.932V179.755C148.077 179.755 149.604 179.755 151.13 179.755C152.657 179.755 154.184 179.755 155.329 179.755V180.515H154.947C153.802 180.515 153.039 180.515 153.039 182.036V196.097C153.039 197.617 154.184 197.617 154.947 197.617H155.329V198.377C154.184 198.377 152.275 198.377 151.13 198.377C149.986 198.377 148.077 198.377 147.314 198.377V197.617H146.932Z" fill="#006AC9"/>
<path d="M155.328 198.377V197.617H154.947C153.802 197.617 152.657 197.617 152.657 196.097V182.036C152.657 180.515 153.802 180.515 154.947 180.515H155.328V179.755C154.184 179.755 152.657 179.755 151.13 179.755C149.985 179.755 148.459 179.755 147.314 179.755V180.515H147.696C148.841 180.515 149.985 180.515 149.985 182.036V196.097C149.985 197.617 148.841 197.617 147.696 197.617H147.314V198.377C148.459 198.377 149.985 198.377 151.13 198.377C152.275 198.377 153.802 198.377 155.328 198.377ZM155.328 198.757C154.184 198.757 152.275 198.757 151.13 198.757C149.985 198.757 148.077 198.757 147.314 198.757V197.617H147.696C148.841 197.617 149.604 197.617 149.604 196.097V182.036C149.604 180.895 148.841 180.515 147.696 180.515H147.314V179.755C148.459 179.755 149.985 179.755 151.512 179.755C153.039 179.755 154.565 179.755 155.71 179.755V180.515H155.328C154.184 180.515 153.42 180.515 153.42 182.036V196.097C153.42 197.237 154.184 197.617 155.328 197.617H155.71L155.328 198.757Z" fill="#006AC9"/>
<path d="M166.778 197.617C172.121 197.617 172.884 193.056 172.884 188.876C172.884 185.076 170.594 180.135 166.396 180.135C161.435 180.135 160.29 184.316 160.29 188.116C159.908 193.056 162.198 197.617 166.778 197.617ZM166.396 179.375C172.121 179.375 176.7 182.796 176.7 188.876C176.7 194.957 172.121 199.137 166.396 199.137C160.671 199.137 156.092 195.337 156.092 189.256C156.092 183.556 160.671 179.375 166.396 179.375Z" fill="#006AC9"/>
<path d="M159.908 188.116C159.908 184.316 161.435 180.135 166.396 180.135C170.976 180.135 173.266 185.076 173.266 188.876C173.266 192.677 172.502 197.617 166.778 197.617C172.121 197.617 172.884 193.057 172.884 189.256C172.884 185.456 170.594 180.515 166.396 180.515C161.435 180.515 160.29 184.696 159.908 188.116C160.29 193.057 162.198 197.617 166.778 197.617C162.198 197.997 159.908 193.057 159.908 188.116ZM156.092 189.256C156.092 183.556 160.671 178.995 166.396 178.995C160.671 179.375 156.473 183.556 156.092 189.256C156.473 194.957 160.671 198.757 166.396 198.757C172.121 198.757 176.7 194.577 176.7 188.496C176.7 182.796 172.121 179.375 166.396 179.375C172.121 179.375 177.082 183.176 177.082 188.876C177.082 195.337 172.502 199.517 166.778 199.517C160.672 199.137 156.092 195.337 156.092 189.256Z" fill="#006AC9"/>
<path d="M195.019 193.056V182.796C195.019 180.515 193.493 180.135 192.729 180.135H191.966V179.375C193.111 179.375 194.638 179.375 195.783 179.375C196.927 179.375 198.072 179.375 199.217 179.375V180.135H198.836C197.691 180.135 196.546 180.515 196.546 183.556V195.717C196.546 196.477 196.546 197.617 196.546 198.377H195.401L181.28 182.796V193.816C181.28 196.097 181.662 196.857 183.952 196.857H184.333V197.617C183.188 197.617 182.043 197.617 180.898 197.617C179.754 197.617 178.609 197.617 177.082 197.617H177.464C179.372 197.617 179.754 196.477 179.754 194.196V182.796C179.754 181.275 178.609 180.515 177.464 180.515H177.082V179.755C178.227 179.755 178.99 179.755 180.135 179.755C180.898 179.755 181.662 179.755 182.425 179.755L195.019 193.056Z" fill="#006AC9"/>
<path d="M195.401 198.757H196.164C196.164 197.997 196.164 196.857 196.164 196.097V183.936C196.164 180.515 197.691 180.515 198.836 180.515H199.217V179.755C198.072 179.755 196.927 179.755 196.164 179.755C195.019 179.755 193.874 179.755 192.348 179.755V180.515H192.729C193.493 180.515 195.401 180.895 195.401 183.176V193.437L183.188 179.755C182.425 179.755 181.662 179.755 180.898 179.755C179.753 179.755 178.99 179.755 177.845 179.755V180.515H178.227C179.372 180.515 180.898 181.656 180.898 183.176V194.577C180.898 196.857 180.135 197.997 178.227 197.997H177.845V198.757C178.99 198.757 180.135 198.757 181.28 198.757C182.425 198.757 183.57 198.757 184.715 198.757V197.997H184.333C182.043 197.997 181.662 197.237 181.662 194.577V183.176L195.401 198.757ZM196.546 199.137H195.401L181.662 183.936V194.957C181.662 197.237 182.043 197.997 183.952 197.997H184.715V198.757C183.57 198.757 182.425 198.757 181.28 198.757C180.135 198.757 178.99 198.757 177.464 198.757V197.617H177.845C179.753 197.617 180.135 196.477 180.135 194.197V182.796C180.135 181.275 178.99 180.515 177.845 180.515H177.464V179.755C178.609 179.755 179.753 179.755 180.517 179.755C181.28 179.755 182.043 179.755 183.188 179.755L195.019 193.056V183.176C195.019 180.895 193.493 180.895 192.729 180.895H191.966V180.135C193.111 180.135 194.638 180.135 195.782 180.135C196.927 180.135 198.072 180.135 199.217 180.135V180.895H198.836C197.691 180.895 196.546 180.895 196.546 184.316V196.477C196.546 197.237 196.546 197.997 196.546 199.137Z" fill="#006AC9"/>
<path d="M207.613 182.796L204.942 190.396H210.285L207.613 182.796ZM203.797 194.577C203.415 195.337 203.034 196.097 203.034 196.857C203.034 197.617 204.179 197.617 204.942 197.617H205.324V198.377C204.179 198.377 203.034 198.377 201.889 198.377C200.744 198.377 199.981 198.377 198.836 198.377V197.617C199.981 197.617 200.744 196.857 201.126 195.717L205.324 183.176C205.705 182.036 206.087 180.895 206.469 179.755C207.232 179.375 208.377 178.995 209.14 178.615C209.14 178.615 209.14 178.615 209.522 178.615C209.522 178.995 209.522 178.995 209.903 179.375L214.865 193.436C215.246 194.197 215.628 195.337 216.01 196.097C216.391 197.617 217.155 197.617 217.918 197.617V198.377C216.773 198.377 215.628 198.377 214.101 198.377C212.956 198.377 211.43 198.377 209.903 198.377V197.617H210.285C211.048 197.617 211.812 197.617 211.812 196.857C211.812 196.477 211.43 195.717 211.43 194.957L210.285 191.916H204.179L203.797 194.577Z" fill="#006AC9"/>
<path d="M205.324 190.396H209.903L207.613 183.176L205.324 190.396ZM204.942 190.396L207.613 182.416L210.285 190.396H204.942ZM210.285 198.377C211.812 198.377 212.956 198.377 214.101 198.377C215.246 198.377 216.391 198.377 217.918 198.377V197.617C217.155 197.617 216.391 197.237 216.01 196.477C215.628 195.717 215.246 194.577 214.865 193.817L209.903 179.755C209.903 179.375 209.903 179.375 209.522 178.995C209.14 179.375 207.995 179.755 207.232 180.135C207.232 181.276 206.469 182.416 206.087 183.556L201.889 196.097C201.507 197.237 200.362 197.997 199.599 197.997V198.757C200.362 198.757 201.507 198.757 202.27 198.757C203.415 198.757 204.56 198.757 205.324 198.757V197.997C204.56 197.997 203.034 197.997 203.034 196.857C203.034 196.477 203.415 195.717 203.797 194.577L204.56 191.536H211.048L212.193 194.577C212.575 195.337 212.575 196.097 212.575 196.477C212.575 197.237 211.43 197.237 210.667 197.237V198.377H210.285ZM218.299 198.757C217.155 198.757 216.01 198.757 214.483 198.757C213.338 198.757 211.812 198.757 210.285 198.757V197.617H210.667C211.43 197.617 212.193 197.617 212.193 196.857C212.193 196.477 211.812 195.717 211.812 194.957L210.667 191.916H204.56L203.797 194.577C203.415 195.337 203.034 196.097 203.034 196.477C203.034 197.237 204.179 197.237 204.942 197.237H205.324V197.997C204.179 197.997 203.034 197.997 201.889 197.997C200.744 197.997 199.981 197.997 198.836 197.997V197.617C199.981 197.617 200.744 196.857 201.126 196.097L205.324 183.556C205.705 182.416 206.087 181.276 206.469 180.135C207.232 179.755 208.377 179.375 209.14 178.995C209.14 178.995 209.14 178.995 209.522 178.995H209.903C209.903 179.375 209.903 179.375 210.285 179.755L215.246 193.817C215.628 194.957 216.01 195.717 216.391 196.477C216.773 197.237 217.155 197.617 217.918 197.617H218.299V198.757Z" fill="#006AC9"/>
<path d="M225.169 196.097C225.169 197.237 225.932 197.617 226.696 197.617C227.841 197.617 228.986 197.617 230.13 197.617C231.275 197.617 232.42 196.857 232.802 196.097C233.184 195.337 233.565 194.577 233.565 194.196H234.329C233.947 195.717 233.565 197.237 233.184 198.757C230.894 198.757 228.222 198.757 225.932 198.757C223.643 198.757 220.971 198.757 218.681 198.757V197.617H219.063C220.208 197.617 220.971 197.617 220.971 195.717V181.655C220.971 180.135 219.826 180.135 219.063 180.135H218.681V179.375C220.208 179.375 221.353 179.375 222.879 179.375C224.406 179.375 225.551 179.375 227.077 179.375V180.135H226.314C225.169 180.135 224.406 180.135 224.406 181.655V196.097H225.169Z" fill="#006AC9"/>
<path d="M233.184 198.377C233.565 196.857 233.947 195.337 234.328 194.197H233.947C233.947 194.957 233.565 195.337 233.184 196.097C232.802 196.857 231.657 197.617 230.512 197.617C229.749 197.617 228.985 197.617 228.604 197.617C228.222 197.617 227.459 197.617 227.077 197.617C226.314 197.617 225.169 197.237 225.169 196.097V182.036C225.169 180.515 225.932 180.515 227.077 180.515H227.459V179.755C225.932 179.755 224.787 179.755 223.261 179.755C221.734 179.755 220.589 179.755 219.063 179.755V180.515H219.444C220.589 180.515 221.734 180.515 221.734 182.036V196.097C221.734 197.997 220.589 197.997 219.444 197.997H219.063V198.757C221.353 198.757 223.642 198.757 226.314 198.757C228.604 198.377 230.894 198.377 233.184 198.377ZM233.565 198.757C231.275 198.757 228.604 198.757 226.314 198.757C224.024 198.757 221.353 198.757 219.063 198.757V197.617H219.444C220.589 197.617 221.353 197.617 221.353 196.097V182.036C221.353 180.895 220.589 180.515 219.444 180.515H219.063V179.755C220.589 179.755 222.116 179.755 223.261 179.755C224.787 179.755 225.932 179.755 227.459 179.755V180.515H226.696C225.551 180.515 224.787 180.515 224.787 182.036V196.097C224.787 197.237 225.551 197.237 226.314 197.617C226.696 197.617 227.459 197.617 227.841 197.617C228.604 197.617 229.367 197.617 229.749 197.617C230.894 197.617 231.657 196.857 232.42 196.097C232.802 195.337 233.184 194.957 233.184 194.197H233.947C234.328 195.717 233.947 197.237 233.565 198.757Z" fill="#006AC9"/>
<path d="M233.565 181.656C234.329 181.656 234.329 181.276 234.329 180.896C234.329 180.515 233.947 180.135 233.947 180.135H233.565V181.656ZM232.802 183.176C233.184 183.176 233.184 183.176 233.184 182.796V180.515C233.184 180.135 233.184 180.135 232.802 180.135H234.329C234.71 180.135 235.474 180.515 235.474 180.896C235.474 181.276 235.092 181.656 234.71 181.656L235.092 182.416C235.474 182.796 235.474 183.176 235.855 183.176H235.474C235.092 183.176 235.092 182.796 234.329 182.036H233.947V182.796C233.947 183.176 233.947 182.796 234.329 183.176H232.802ZM233.947 183.936C235.092 183.936 236.237 182.796 236.237 181.656C236.237 180.515 235.092 179.375 233.947 179.375C232.802 179.375 231.657 180.515 231.657 181.656C232.039 182.796 232.802 183.936 233.947 183.936ZM233.947 178.995C235.474 178.995 237 180.135 237 182.036C237 183.936 235.855 184.696 233.947 184.696C232.039 184.696 230.894 183.556 230.894 182.036C230.894 180.516 232.42 178.995 233.947 178.995Z" fill="#006AC9"/>
<path d="M169.449 76.3865C169.449 64.2255 164.488 53.2046 156.092 44.4638C148.077 39.5234 138.536 36.4832 128.614 36.4832H106.478C80.1449 36.4832 58.7729 55.8648 58.7729 83.9872C58.7729 95.7682 63.3527 106.409 70.6039 114.77C78.2367 120.09 87.3961 123.891 97.3188 125.411C77.8551 121.23 63.3527 104.129 63.3527 83.2271C63.3527 59.2851 82.8164 39.9034 106.478 39.9034C130.522 39.9034 149.986 59.2851 149.986 83.2271C149.986 106.789 131.285 125.791 107.623 126.171C108.386 126.171 108.768 126.171 109.531 126.171C142.353 126.551 169.449 104.129 169.449 76.3865Z" fill="#004A97"/>
<path d="M106.097 36.4832C79.7633 36.4832 58.3914 55.8648 58.3914 83.9872C58.3914 95.3881 62.5894 106.029 69.8406 114.01C70.2223 114.39 70.6039 114.77 70.9856 115.15C78.6184 120.47 87.3962 123.891 97.3189 125.791C77.8551 121.61 63.3527 104.509 63.3527 83.6072C63.3527 59.6651 82.8165 40.2835 106.478 40.2835C130.522 40.2835 149.986 59.6651 149.986 83.6072C149.986 107.169 131.285 126.171 107.623 126.551C108.387 126.551 108.768 126.551 109.531 126.551C111.44 126.551 113.348 126.551 115.256 126.171C140.445 120.09 156.473 94.6281 151.894 67.6458C149.604 55.1047 143.498 44.4638 134.72 36.8632C132.812 36.4832 130.903 36.4832 128.995 36.4832H106.097Z" fill="#006AC9"/>
</g>
<defs>
<clipPath id="clip0_5394_9582">
<rect width="237" height="236" fill="white"/>
</clipPath>
</defs>
</svg>
