<svg width="237" height="236" viewBox="0 0 237 236" fill="none" xmlns="http://www.w3.org/2000/svg">
<path d="M125.763 120.474C136.741 120.474 145.64 111.612 145.64 100.681C145.64 89.7491 136.741 80.8872 125.763 80.8872C114.785 80.8872 105.885 89.7491 105.885 100.681C105.885 111.612 114.785 120.474 125.763 120.474Z" fill="#EF9122"/>
<path d="M105.885 100.681C105.885 89.642 114.677 80.8872 125.763 80.8872C136.848 80.8872 145.64 89.642 145.64 100.681C145.64 111.719 136.848 120.474 125.763 120.474" fill="#F26E21"/>
<path d="M112.002 86.5969C119.647 78.984 132.261 78.984 139.907 86.5969C147.552 94.2098 147.552 106.771 139.907 114.384" fill="#F44500"/>
<path d="M10.7032 82.0291H0V119.332H10.7032C16.4371 119.332 20.6419 117.81 24.0823 115.145C28.2871 111.719 30.9629 106.39 30.9629 100.681C30.9629 89.642 22.9355 82.0291 10.7032 82.0291ZM19.4952 110.197C17.2016 112.1 14.1435 113.242 9.55645 113.242H7.2629V88.5H9.17419C13.7613 88.5 16.8194 89.2613 19.1129 91.5452C21.7887 93.8291 23.3177 97.2549 23.3177 100.681C23.7 104.106 22.171 107.913 19.4952 110.197Z" fill="#595A5B"/>
<path d="M41.6662 82.0291H34.4033V119.332H41.6662V82.0291Z" fill="#595A5B"/>
<path d="M60.0144 96.4936C55.4273 94.971 54.2806 93.8291 54.2806 91.9259C54.2806 89.642 56.5741 87.7388 59.6322 87.7388C61.9257 87.7388 63.837 88.5 65.7483 90.7839L69.5709 85.8355C66.5128 83.171 62.6903 81.6484 58.4854 81.6484C51.987 81.6484 46.6354 86.2162 46.6354 92.3065C46.6354 97.6355 48.929 99.9194 55.8096 102.584C58.8677 103.726 60.0144 104.106 60.779 104.868C62.308 105.629 63.0725 107.152 63.0725 108.674C63.0725 111.719 60.779 114.003 57.3386 114.003C53.8983 114.003 50.8402 112.1 49.3112 109.055L44.7241 113.623C48.1644 118.571 52.3693 120.855 57.7209 120.855C65.3661 120.855 70.7177 115.906 70.7177 108.674C70.7177 102.203 68.4241 99.5388 60.0144 96.4936Z" fill="#595A5B"/>
<path d="M73.0112 100.681C73.0112 111.719 81.8032 120.093 92.8886 120.093C95.9467 120.093 98.6225 119.332 102.063 117.81V109.055C99.0048 112.1 96.329 113.242 93.2709 113.242C86.008 113.242 80.6564 107.913 80.6564 100.3C80.6564 93.0676 86.008 87.358 92.8886 87.358C96.329 87.358 99.0048 88.4999 102.063 91.5451V82.7902C99.0048 81.2676 96.329 80.5063 92.8886 80.5063C82.1854 81.2676 73.0112 90.0225 73.0112 100.681Z" fill="#3B3D3F"/>
<path d="M162.077 107.152L152.139 82.0291H144.111L159.784 120.474H163.989L180.426 82.0291H172.398L162.077 107.152Z" fill="black"/>
<path d="M183.484 119.332H204.508V113.242H191.129V102.965H204.126V96.4936H191.129V88.5H204.508V82.0291H183.484V119.332Z" fill="black"/>
<path d="M225.15 103.726C230.884 102.584 233.942 98.7774 233.942 93.0678C233.942 86.2162 228.973 82.0291 220.563 82.0291H209.478V119.332H216.74V104.487H217.887L228.208 119.332H237L225.15 103.726ZM219.034 99.1581H216.74V87.7387H219.034C223.621 87.7387 226.297 89.642 226.297 93.4484C226.297 97.2549 223.621 99.1581 219.034 99.1581Z" fill="#595A5B"/>
<path d="M10.7032 82.0291H0V119.332H10.7032C16.4371 119.332 20.6419 117.81 24.0823 115.145C28.2871 111.719 30.9629 106.39 30.9629 100.681C30.9629 89.642 22.9355 82.0291 10.7032 82.0291ZM19.4952 110.197C17.2016 112.1 14.1435 113.242 9.55645 113.242H7.2629V88.5H9.17419C13.7613 88.5 16.8194 89.2613 19.1129 91.5452C21.7887 93.8291 23.3177 97.2549 23.3177 100.681C23.7 104.106 22.171 107.913 19.4952 110.197Z" fill="#595A5B"/>
<path d="M41.6662 82.0291H34.4033V119.332H41.6662V82.0291Z" fill="#595A5B"/>
<path d="M60.0144 96.4936C55.4273 94.971 54.2806 93.8291 54.2806 91.9259C54.2806 89.642 56.5741 87.7388 59.6322 87.7388C61.9257 87.7388 63.837 88.5 65.7483 90.7839L69.5709 85.8355C66.5128 83.171 62.6903 81.6484 58.4854 81.6484C51.987 81.6484 46.6354 86.2162 46.6354 92.3065C46.6354 97.6355 48.929 99.9194 55.8096 102.584C58.8677 103.726 60.0144 104.106 60.779 104.868C62.308 105.629 63.0725 107.152 63.0725 108.674C63.0725 111.719 60.779 114.003 57.3386 114.003C53.8983 114.003 50.8402 112.1 49.3112 109.055L44.7241 113.623C48.1644 118.571 52.3693 120.855 57.7209 120.855C65.3661 120.855 70.7177 115.906 70.7177 108.674C70.7177 102.203 68.4241 99.5388 60.0144 96.4936Z" fill="#595A5B"/>
<path d="M93.2708 120.094C96.3288 120.094 99.0046 119.332 102.445 117.81V109.055C99.3869 112.1 96.7111 113.242 93.653 113.242C86.3901 113.242 81.0385 107.913 81.0385 100.3C81.0385 96.4935 82.5675 93.4484 84.8611 90.7838L79.8917 85.8354C76.0692 89.2613 73.3934 94.5903 73.3934 100.3C73.0111 111.719 81.803 120.094 93.2708 120.094Z" fill="#595A5B"/>
<path d="M225.15 103.726C230.884 102.584 233.942 98.7774 233.942 93.0678C233.942 86.2162 228.973 82.0291 220.563 82.0291H209.478V119.332H216.74V104.487H217.887L228.208 119.332H237L225.15 103.726ZM219.034 99.1581H216.74V87.7387H219.034C223.621 87.7387 226.297 89.642 226.297 93.4484C226.297 97.2549 223.621 99.1581 219.034 99.1581Z" fill="black"/>
<path d="M53.8984 153.971V133.035L68.4242 147.881V134.177H71.4823V155.113L56.9565 140.268V153.971H53.8984Z" fill="#F26E21"/>
<path d="M86.7727 137.222H78.7453V141.79H86.3905V144.835H78.7453V151.306H86.7727V153.971H75.6873V134.177H86.7727V137.222Z" fill="#F26E21"/>
<path d="M96.329 137.222V153.971H93.2709V137.222H88.6838V134.558H100.916V137.222H96.329Z" fill="#F26E21"/>
<path d="M105.503 134.558L110.473 147.88L115.824 133.797L120.794 147.88L126.145 134.558H129.968L121.176 155.493L116.207 141.41L110.855 155.493L102.445 134.558H105.503Z" fill="#F26E21"/>
<path d="M130.35 144.074C130.35 141.41 131.497 138.745 133.408 136.842C135.319 134.939 137.995 133.797 140.671 133.797C143.347 133.797 146.023 134.939 147.934 136.842C149.845 138.745 150.992 141.41 150.992 144.074C150.992 146.739 149.845 149.403 147.934 151.306C146.023 153.21 143.347 154.351 140.671 154.351C137.995 154.351 135.702 153.59 133.79 151.687C131.497 149.784 130.35 147.5 130.35 144.074ZM133.408 144.074C133.408 146.358 134.173 147.88 135.702 149.403C137.231 150.926 138.76 151.687 140.671 151.687C142.582 151.687 144.494 150.926 146.023 149.403C147.552 147.88 148.316 146.358 148.316 144.074C148.316 141.79 147.552 140.268 146.023 138.745C144.494 137.222 142.965 136.461 140.671 136.461C138.76 136.461 136.848 137.222 135.319 138.745C134.173 140.268 133.408 142.171 133.408 144.074Z" fill="#F26E21"/>
<path d="M161.695 145.597L167.811 153.971H163.989L158.255 145.977H157.873V153.971H154.814V134.177H158.255C160.931 134.177 162.842 134.558 163.989 135.7C165.135 136.842 165.9 138.364 165.9 139.887C165.9 141.41 165.518 142.551 164.753 143.313C163.989 144.835 162.842 145.597 161.695 145.597ZM157.873 143.313H158.637C161.313 143.313 162.842 142.171 162.842 140.268C162.842 138.364 161.313 137.222 158.637 137.222H157.49V143.313H157.873Z" fill="#F26E21"/>
<path d="M173.545 142.171L181.19 134.177H185.013L176.221 142.932L185.013 153.59H181.19L173.928 144.835L173.163 145.597V153.59H170.105V133.797H173.163V142.171H173.545Z" fill="#F26E21"/>
<path d="M198.01 113.242H191.129V106.39L183.484 98.7773V119.332H204.126L198.01 113.242Z" fill="#3B3D3F"/>
<path d="M170.487 85.8355L162.077 107.152L152.139 82.0291H144.111L159.784 120.474H163.989L176.221 91.5452L170.487 85.8355Z" fill="#3B3D3F"/>
</svg>
