<svg width="237" height="196" viewBox="0 0 237 196" fill="none" xmlns="http://www.w3.org/2000/svg">
<g clip-path="url(#clip0_5394_9554)">
<path d="M81.3627 170.98V161.232C81.4192 160.414 81.3018 159.594 81.0184 158.826C80.735 158.057 80.2921 157.358 79.7191 156.776C79.1462 156.193 78.4564 155.74 77.6957 155.447C76.935 155.153 76.121 155.026 75.3078 155.075C74.2406 155.004 73.1741 155.223 72.2198 155.709C71.2655 156.195 70.4583 156.93 69.8825 157.836C69.3576 156.957 68.6066 156.236 67.7086 155.75C66.8106 155.264 65.7989 155.03 64.7802 155.075C63.8922 155.029 63.0078 155.219 62.2148 155.623C61.4217 156.028 60.7476 156.634 60.2591 157.382V155.464H56.9006V170.98H60.2914V162.386C60.2163 161.854 60.2595 161.312 60.4181 160.799C60.5766 160.287 60.8464 159.816 61.2081 159.421C61.5697 159.026 62.014 158.717 62.5089 158.516C63.0039 158.315 63.537 158.227 64.0697 158.259C66.298 158.259 67.4282 159.721 67.4282 162.353V170.98H70.819V162.386C70.7498 161.855 70.7973 161.316 70.958 160.805C71.1187 160.295 71.3888 159.827 71.7492 159.433C72.1095 159.04 72.5514 158.731 73.0436 158.528C73.5357 158.325 74.0661 158.233 74.5973 158.259C76.8901 158.259 77.9881 159.721 77.9881 162.353V170.98H81.3627ZM100.254 163.23V155.481H96.8635V157.365C96.294 156.626 95.5575 156.034 94.715 155.638C93.8726 155.243 92.9485 155.055 92.0195 155.091C89.8783 155.091 87.8248 155.947 86.3108 157.47C84.7968 158.993 83.9462 161.06 83.9462 163.214C83.9462 165.369 84.7968 167.435 86.3108 168.958C87.8248 170.482 89.8783 171.338 92.0195 171.338C92.9485 171.373 93.8726 171.186 94.715 170.79C95.5575 170.394 96.294 169.802 96.8635 169.063V170.948H100.222L100.254 163.23ZM87.7729 163.23C87.8265 162.316 88.1446 161.438 88.6881 160.703C89.2316 159.968 89.9768 159.41 90.8318 159.096C91.6869 158.782 92.6145 158.726 93.5005 158.936C94.3865 159.146 95.1921 159.612 95.8182 160.277C96.4443 160.942 96.8636 161.776 97.0243 162.677C97.185 163.579 97.0802 164.508 96.7228 165.35C96.3654 166.193 95.771 166.911 95.0128 167.418C94.2546 167.925 93.3656 168.197 92.4555 168.202C91.8128 168.217 91.174 168.097 90.5801 167.849C89.9861 167.602 89.4501 167.232 89.0063 166.764C88.5625 166.296 88.2207 165.74 88.0027 165.132C87.7848 164.523 87.6955 163.876 87.7407 163.23H87.7729ZM172.01 155.107C173.116 155.104 174.212 155.314 175.239 155.724C176.22 156.12 177.114 156.705 177.871 157.447C178.618 158.182 179.211 159.06 179.615 160.03C180.458 162.113 180.458 164.445 179.615 166.528C179.211 167.498 178.618 168.377 177.871 169.112C177.114 169.853 176.22 170.439 175.239 170.834C173.11 171.666 170.748 171.666 168.619 170.834C167.643 170.439 166.754 169.854 166.003 169.112C165.263 168.374 164.676 167.496 164.276 166.528C163.434 164.445 163.434 162.113 164.276 160.03C164.676 159.062 165.263 158.184 166.003 157.447C166.754 156.705 167.643 156.119 168.619 155.724C169.684 155.28 170.825 155.054 171.978 155.058L172.01 155.107ZM172.01 158.356C171.352 158.347 170.699 158.469 170.088 158.714C169.513 158.946 168.991 159.294 168.554 159.737C168.109 160.204 167.763 160.757 167.537 161.362C167.044 162.659 167.044 164.094 167.537 165.391C167.763 165.997 168.109 166.55 168.554 167.016C168.991 167.459 169.513 167.808 170.088 168.039C171.319 168.524 172.685 168.524 173.915 168.039C174.518 167.815 175.068 167.466 175.53 167.016C175.976 166.55 176.322 165.997 176.547 165.391C177.04 164.094 177.04 162.659 176.547 161.362C176.322 160.756 175.976 160.203 175.53 159.737C175.068 159.287 174.518 158.938 173.915 158.714C173.306 158.433 172.647 158.279 171.978 158.259L172.01 158.356ZM118.5 163.23C118.5 158.356 115.497 155.107 111.186 155.107C109.044 155.137 107.003 156.022 105.51 157.567C104.017 159.111 103.195 161.19 103.225 163.344C103.255 165.499 104.135 167.553 105.67 169.055C107.205 170.557 109.27 171.384 111.412 171.354C113.71 171.433 115.958 170.658 117.725 169.177L116.11 166.675C114.835 167.704 113.256 168.275 111.621 168.299C110.511 168.395 109.408 168.052 108.545 167.342C107.683 166.632 107.13 165.612 107.004 164.498H118.452C118.5 164.091 118.5 163.685 118.5 163.23ZM107.02 161.866C107.082 160.834 107.539 159.867 108.295 159.168C109.05 158.468 110.046 158.09 111.072 158.113C111.575 158.102 112.075 158.191 112.543 158.374C113.012 158.558 113.439 158.833 113.802 159.183C114.165 159.533 114.456 159.951 114.658 160.414C114.86 160.878 114.97 161.376 114.98 161.882L107.02 161.866ZM132.628 159.429C131.154 158.574 129.486 158.116 127.784 158.096C125.944 158.096 124.846 158.779 124.846 159.916C124.846 161.053 126.008 161.248 127.461 161.443L129.076 161.671C132.434 162.158 134.469 163.588 134.469 166.317C134.469 169.047 131.886 171.386 127.445 171.386C125.065 171.45 122.728 170.744 120.777 169.372L122.391 166.74C123.873 167.846 125.682 168.418 127.526 168.364C129.819 168.364 131.046 167.682 131.046 166.48C131.046 165.602 130.174 165.115 128.333 164.855L126.719 164.628C123.263 164.14 121.39 162.581 121.39 160.046C121.39 156.959 123.909 155.075 127.849 155.075C130.054 155 132.234 155.564 134.13 156.699L132.628 159.429ZM148.775 158.551H143.301V165.554C143.301 167.178 143.85 168.153 145.529 168.153C146.577 168.118 147.6 167.816 148.5 167.276L149.469 170.168C148.21 170.958 146.755 171.375 145.271 171.37C141.299 171.37 139.91 169.225 139.91 165.619V158.551H136.778V155.464H139.91V150.753H143.301V155.464H148.775V158.551ZM160.384 155.075C161.199 155.078 162.007 155.221 162.774 155.497L161.741 158.746C161.073 158.479 160.36 158.346 159.642 158.356C157.446 158.356 156.412 159.786 156.412 162.353V171.045H153.054V155.529H156.38V157.414C156.792 156.702 157.388 156.114 158.104 155.714C158.82 155.314 159.63 155.115 160.449 155.14L160.384 155.075ZM183.603 168.722C183.813 168.719 184.021 168.758 184.217 168.835C184.402 168.912 184.572 169.022 184.717 169.16C184.859 169.3 184.974 169.466 185.056 169.648C185.138 169.838 185.18 170.042 185.18 170.249C185.18 170.456 185.138 170.66 185.056 170.85C184.974 171.032 184.859 171.197 184.717 171.338C184.572 171.476 184.402 171.586 184.217 171.662C184.023 171.748 183.814 171.793 183.603 171.792C183.297 171.79 182.998 171.7 182.741 171.533C182.483 171.367 182.278 171.13 182.15 170.85C182.069 170.66 182.027 170.456 182.027 170.249C182.027 170.042 182.069 169.838 182.15 169.648C182.232 169.466 182.347 169.3 182.489 169.16C182.634 169.022 182.804 168.912 182.99 168.835C183.159 168.768 183.34 168.729 183.522 168.722H183.603ZM183.603 171.467C183.764 171.468 183.924 171.435 184.071 171.37C184.21 171.308 184.336 171.219 184.443 171.11C184.58 170.971 184.681 170.801 184.738 170.614C184.794 170.427 184.805 170.229 184.768 170.037C184.732 169.845 184.649 169.664 184.528 169.512C184.406 169.359 184.25 169.238 184.071 169.16C183.924 169.096 183.764 169.062 183.603 169.063C183.442 169.064 183.283 169.097 183.135 169.16C182.99 169.22 182.858 169.309 182.747 169.42C182.545 169.642 182.433 169.932 182.433 170.233C182.433 170.533 182.545 170.823 182.747 171.045C182.859 171.159 182.992 171.249 183.139 171.311C183.286 171.372 183.444 171.403 183.603 171.402V171.467ZM183.7 169.534C183.851 169.527 183.999 169.573 184.12 169.664C184.169 169.705 184.208 169.758 184.233 169.817C184.259 169.876 184.27 169.941 184.265 170.005C184.267 170.059 184.259 170.113 184.239 170.163C184.22 170.214 184.19 170.259 184.152 170.298C184.058 170.383 183.939 170.435 183.813 170.444L184.281 170.98H183.91L183.474 170.444H183.329V170.98H183.022V169.485L183.7 169.534ZM183.345 169.81V170.2H183.7C183.763 170.219 183.831 170.219 183.894 170.2C183.905 170.178 183.911 170.152 183.911 170.127C183.911 170.102 183.905 170.077 183.894 170.054C183.905 170.031 183.911 170.006 183.911 169.981C183.911 169.955 183.905 169.93 183.894 169.908C183.831 169.889 183.763 169.889 183.7 169.908L183.345 169.81Z" fill="black"/>
<path d="M143.931 37.0911H93.0691V129.064H143.931V37.0911Z" fill="#7673C0"/>
<path d="M96.2985 83.0866C96.2891 74.2277 98.2832 65.4828 102.13 57.5141C105.976 49.5454 111.574 42.5618 118.5 37.0922C109.925 30.3112 99.6265 26.0945 88.7822 24.924C77.9379 23.7535 66.985 25.6765 57.1755 30.4731C47.3659 35.2698 39.0954 42.7466 33.3093 52.0491C27.5231 61.3515 24.4546 72.1043 24.4546 83.0784C24.4546 94.0526 27.5231 104.805 33.3093 114.108C39.0954 123.41 47.3659 130.887 57.1755 135.684C66.985 140.48 77.9379 142.403 88.7822 141.233C99.6265 140.062 109.925 135.846 118.5 129.065C111.576 123.597 105.98 116.616 102.133 108.65C98.2868 100.684 96.2916 91.9427 96.2985 83.0866Z" fill="#EB001B"/>
<path d="M207 119.316V117.496H207.759V117.106H205.837V117.496H206.596V119.381L207 119.316ZM210.73 119.316V117.041H210.148L209.47 118.666L208.792 117.041H208.195V119.316H208.614V117.61L209.244 119.088H209.68L210.31 117.61V119.332L210.73 119.316Z" fill="#00A1DF"/>
<path d="M212.538 83.0855C212.535 94.0576 209.465 104.808 203.679 114.108C197.893 123.408 189.623 130.882 179.815 135.678C170.007 140.473 159.056 142.396 148.214 141.226C137.372 140.057 127.075 135.842 118.5 129.064C125.421 123.591 131.016 116.608 134.864 108.642C138.711 100.676 140.71 91.9343 140.71 83.0774C140.71 74.2204 138.711 65.4791 134.864 57.5129C131.016 49.5468 125.421 42.5639 118.5 37.0911C127.075 30.308 137.373 26.0892 148.218 24.9171C159.063 23.7449 170.017 25.6667 179.828 30.4627C189.638 35.2586 197.91 42.7353 203.697 52.0381C209.485 61.3408 212.554 72.0943 212.554 83.0692L212.538 83.0855Z" fill="#00A1DF"/>
</g>
<defs>
<clipPath id="clip0_5394_9554">
<rect width="237" height="196" fill="white"/>
</clipPath>
</defs>
</svg>
