<svg width="237" height="166" viewBox="0 0 237 166" fill="none" xmlns="http://www.w3.org/2000/svg">
<path d="M142.924 126.502H93.9407V39.497H142.924V126.502Z" fill="#FF5F00"/>
<path d="M97.0519 82.9999C97.0519 65.3486 105.413 49.6288 118.433 39.497C108.911 32.0874 96.8958 27.6666 83.8374 27.6666C52.9222 27.6666 27.8604 52.4399 27.8604 82.9999C27.8604 113.559 52.9222 138.333 83.8374 138.333C96.8958 138.333 108.911 133.912 118.433 126.502C105.413 116.37 97.0519 100.65 97.0519 82.9999Z" fill="#EB001B"/>
<path d="M209.005 82.9999C209.005 113.559 183.943 138.333 153.029 138.333C139.97 138.333 127.955 133.912 118.433 126.502C131.453 116.37 139.814 100.65 139.814 82.9999C139.814 65.3486 131.453 49.6288 118.433 39.497C127.955 32.0874 139.97 27.6666 153.029 27.6666C183.943 27.6666 209.005 52.4399 209.005 82.9999Z" fill="#F79E1B"/>
<path d="M207.257 117.287V115.14H206.69L206.037 116.616L205.385 115.14H204.817V117.287H205.217V115.668L205.83 117.064H206.245L206.858 115.664V117.287H207.257ZM203.664 117.287V115.506H204.391V115.144H202.539V115.506H203.267V117.287H203.664Z" fill="#F79E1B"/>
</svg>
