<svg width="237" height="236" viewBox="0 0 237 236" fill="none" xmlns="http://www.w3.org/2000/svg">
<mask id="mask0_5394_9538" style="mask-type:luminance" maskUnits="userSpaceOnUse" x="0" y="83" width="237" height="77">
<path d="M117.347 84.4305L101.511 158.147H82.3577L98.1996 84.4305H117.347ZM197.918 132.027L207.999 104.349L213.803 132.027H197.918ZM219.288 158.147H237L221.539 84.4305H205.194C201.517 84.4305 198.417 86.5577 197.041 89.8367L168.306 158.147H188.411L192.406 147.134H216.973L219.288 158.147ZM169.301 134.077C169.387 114.624 142.286 113.549 142.472 104.857C142.531 102.214 145.059 99.4037 150.595 98.6837C153.335 98.3278 160.902 98.0517 169.475 101.981L172.84 86.3506C168.228 84.6836 162.302 83.0823 154.922 83.0823C135.995 83.0823 122.671 93.1034 122.564 107.449C122.438 118.066 132.073 123.982 139.332 127.512C146.79 131.125 149.291 133.442 149.264 136.673C149.208 141.621 143.313 143.802 137.801 143.888C128.173 144.037 122.585 141.297 118.132 139.23L114.665 155.384C119.135 157.428 127.395 159.212 135.961 159.3C156.081 159.3 169.239 149.407 169.301 134.077ZM89.9821 84.4305L58.9539 158.147H38.7114L23.4419 99.3158C22.5145 95.6941 21.7108 94.3646 18.8924 92.8413C14.2891 90.351 6.68748 88.0173 0 86.5679L0.451318 84.4305H33.0392C37.1902 84.4305 40.9273 87.1804 41.8702 91.9451L49.9348 134.604L69.8665 84.4305H89.9821Z" fill="white"/>
</mask>
<g mask="url(#mask0_5394_9538)">
<path d="M117.347 84.4305L101.511 158.147H82.3577L98.1996 84.4305H117.347ZM197.918 132.027L207.999 104.349L213.803 132.027H197.918ZM219.288 158.147H237L221.539 84.4305H205.194C201.517 84.4305 198.417 86.5577 197.041 89.8367L168.306 158.147H188.411L192.406 147.134H216.973L219.288 158.147ZM169.301 134.077C169.387 114.624 142.286 113.549 142.472 104.857C142.531 102.214 145.059 99.4037 150.595 98.6837C153.335 98.3278 160.902 98.0517 169.475 101.981L172.84 86.3506C168.228 84.6836 162.302 83.0823 154.922 83.0823C135.995 83.0823 122.671 93.1034 122.564 107.449C122.438 118.066 132.073 123.982 139.332 127.512C146.79 131.125 149.291 133.442 149.264 136.673C149.208 141.621 143.313 143.802 137.801 143.888C128.173 144.037 122.585 141.297 118.132 139.23L114.665 155.384C119.135 157.428 127.395 159.212 135.961 159.3C156.081 159.3 169.239 149.407 169.301 134.077ZM89.9821 84.4305L58.9539 158.147H38.7114L23.4419 99.3158C22.5145 95.6941 21.7108 94.3646 18.8924 92.8413C14.2891 90.351 6.68748 88.0173 0 86.5679L0.451318 84.4305H33.0392C37.1902 84.4305 40.9273 87.1804 41.8702 91.9451L49.9348 134.604L69.8665 84.4305H89.9821Z" fill="url(#paint0_linear_5394_9538)"/>
</g>
<defs>
<linearGradient id="paint0_linear_5394_9538" x1="0" y1="121.191" x2="237" y2="121.191" gradientUnits="userSpaceOnUse">
<stop stop-color="#222357"/>
<stop offset="1" stop-color="#254AA5"/>
</linearGradient>
</defs>
</svg>
